<svg width="758" height="364" viewBox="0 0 758 364" fill="none" xmlns="http://www.w3.org/2000/svg">
<path d="M160.417 227.5H151.25V255H99.9167V227.5H4.58333L22.9167 126.667H76.0833L66 181.667H99.9167V108.333H151.25V181.667H160.417V227.5Z" fill="white"/>
<path d="M753.417 227.5H744.25V255H692.917V227.5H597.583L615.917 126.667H669.083L659 181.667H692.917V108.333H744.25V181.667H753.417V227.5Z" fill="white"/>
<path d="M379 22.75C293.047 22.75 222.636 90.9289 219.835 176.81C316.65 186.621 441.349 186.621 538.179 176.81C537.965 169.274 537.183 161.738 535.832 154.273H447.25V141.477H470V130.102H492.75V118.727H525.168C521.969 111.333 518.201 104.223 513.936 97.3984H458.625V84.6016H492.75V74.6484H479.455V63.2734H458.625V51.8984H424.5V39.1016H449.311C427.414 28.338 403.385 22.75 379 22.75ZM333.286 68.25H333.5C358.596 68.25 379 88.6539 379 113.75C379 138.846 358.596 159.25 333.5 159.25C308.404 159.25 288 138.846 288 113.75C288 88.725 308.261 68.3709 333.286 68.25ZM219.934 189.607C223.994 274.493 293.972 341.25 379 341.25C386.536 340.255 390.375 341.25 410.139 336.273V323.477H452.084C457.843 320.491 463.459 317.149 468.791 313.523H458.625V302.148H435.875V289.352H496.589C502.632 282.74 508.177 275.559 513.011 268.023H504.125V256.648H447.25V243.852H458.625V232.477H492.75V221.102H515.5V209.727H535.761C536.97 203.044 537.681 196.361 538.036 189.607C440.78 199.347 317.219 199.347 219.934 189.607Z" fill="white"/>
</svg>
